PathFileType	4	(X/Y/Z)	s05c0103.trc
DataRate	CameraRate	NumFrames	NumMarkers	Units	OrigDataRate	OrigDataStartFrame	OrigNumFrames
200	200	5	49	mm	200	1750	2000
Frame#	Time	racr			lacr			c7			jug			rlel			rdr			llel			ldr			s2			lic			ric			lasi			rasi			rpsi			lpsi			rgt			lgt			rth1			rth2			rth3			rth4			rlfc			rsh1			rsh2			rsh3			rsh4			rlmal			rmmal			rcal			rtoe			rmt5			lth1			lth2			lth4			lth3			llfc			lmfc			lsh1			lsh2			lsh3			lsh4			llmal			lmmal			lcal			ltoe			lmt5			SBIKE			LBIKE			RBIKE			
		X1	Y1	Z1	X2	Y2	Z2	X3	Y3	Z3	X4	Y4	Z4	X5	Y5	Z5	X6	Y6	Z6	X7	Y7	Z7	X8	Y8	Z8	X9	Y9	Z9	X10	Y10	Z10	X11	Y11	Z11	X12	Y12	Z12	X13	Y13	Z13	X14	Y14	Z14	X15	Y15	Z15	X16	Y16	Z16	X17	Y17	Z17	X18	Y18	Z18	X19	Y19	Z19	X20	Y20	Z20	X21	Y21	Z21	X22	Y22	Z22	X23	Y23	Z23	X24	Y24	Z24	X25	Y25	Z25	X26	Y26	Z26	X27	Y27	Z27	X28	Y28	Z28	X29	Y29	Z29	X30	Y30	Z30	X31	Y31	Z31	X32	Y32	Z32	X33	Y33	Z33	X34	Y34	Z34	X35	Y35	Z35	X36	Y36	Z36	X37	Y37	Z37	X38	Y38	Z38	X39	Y39	Z39	X40	Y40	Z40	X41	Y41	Z41	X42	Y42	Z42	X43	Y43	Z43	X44	Y44	Z44	X45	Y45	Z45	X46	Y46	Z46	X47	Y47	Z47	X48	Y48	Z48	X49	Y49	Z49	
1750	8.7500	492.282372	1262.790412	-192.240161	479.874346	1256.523966	-435.476007	466.812373	1329.966282	-318.073326	409.415326	1180.252845	-313.387860	523.361554	1062.409107	-0.429656	695.099306	915.382652	-88.155130	454.391469	1016.336780	-603.376973	672.266662	932.853782	-488.215335	-118.486555	1168.212487	-267.963989	12.822294	1180.469609	-424.141570	41.168698	1182.972774	-141.243165	62.273021	1126.521834	-388.396406	77.639096	1123.299381	-171.023225	-80.452225	1215.315904	-229.078134	-86.117575	1219.941676	-314.992605	-3.225139	1056.646550	-108.647515	-47.119121	1081.599535	-446.429432	97.148610	990.980505	-96.959609	179.427438	957.522597	-95.882140	232.015531	886.578404	-98.760148	200.331756	984.898845	-108.957171	333.443670	781.606252	-120.581243	243.620639	720.851452	-91.701427	197.999228	646.286650	-102.956676	123.097241	602.237063	-106.216883	219.781897	626.544998	-127.881873	33.486135	506.558786	-110.442563	61.324729	520.757487	-190.512534	-37.913557	533.278153	-156.351272	145.035976	299.391010	-157.805967	61.377541	358.372763	-91.930131	56.861413	976.035846	-471.981194	136.612986	943.714948	-472.972663	159.961921	970.897953	-461.573057	190.890990	871.424156	-474.779903	293.472631	768.297632	-446.986110	291.926274	753.553982	-340.420898	255.894615	645.286684	-467.186372	266.268317	558.887483	-456.199568	231.052379	477.728475	-454.697638	297.353077	557.097137	-433.484680	220.321647	350.894791	-443.242166	0.000000	0.000000	-0.000000	163.083138	305.502917	-397.751422	456.310043	318.901795	-406.722290	351.797015	278.203064	-468.303651	-220.348309	908.784167	-275.254570	-53.434957	78.926396	-474.771939	-53.477449	79.334720	-76.961233	
1751	8.7550	492.296238	1263.128455	-190.321212	481.685562	1256.722421	-433.804180	467.890748	1330.245957	-316.246703	410.205218	1180.635329	-311.942391	522.874380	1061.604219	0.037954	695.142499	915.343453	-87.984851	456.058672	1018.162025	-604.003272	672.543080	932.873249	-488.079377	-117.842334	1168.941526	-270.512972	15.109200	1179.707847	-425.849772	40.738652	1184.482949	-142.934145	64.210627	1125.726658	-389.547069	77.961297	1124.966254	-171.789574	-80.030419	1216.098596	-231.964781	-84.528999	1219.045237	-317.288589	-2.817581	1059.294607	-109.697727	-45.471727	1080.008550	-447.512191	97.898052	995.178840	-97.526814	181.204878	963.474978	-95.358641	235.156934	893.727556	-97.828658	201.600281	991.252623	-108.350455	338.486093	790.627952	-119.332821	248.327656	730.399474	-90.789670	202.287196	656.146737	-102.292632	127.129436	612.586405	-106.148133	224.153028	636.117216	-127.033474	37.097185	517.393882	-110.577635	65.363740	531.338646	-190.564457	-34.131688	544.376487	-156.955939	147.651507	309.492284	-157.776906	64.390485	369.512395	-91.475084	57.063839	972.183983	-472.490221	135.838720	937.574175	-472.707538	159.936835	964.210985	-461.287042	187.957226	863.802417	-473.577463	287.326940	758.407645	-444.921081	284.532276	743.473752	-336.993868	250.937925	635.008900	-465.961941	262.186614	548.802955	-454.902979	227.901105	467.199388	-453.747305	292.932379	547.342807	-431.699088	217.715829	340.558642	-442.578766	0.000000	0.000000	-0.000000	160.540849	295.482638	-397.331510	453.946201	308.092511	-406.527211	349.251844	267.901675	-468.033612	-220.276651	908.826071	-275.251738	-53.420837	78.957545	-474.757590	-53.426478	79.138598	-77.130854	
1752	8.7600	492.370917	1263.521360	-188.397913	483.740658	1257.156405	-432.147977	468.632793	1330.236307	-314.108867	411.895090	1180.254795	-310.251214	522.356383	1060.778878	0.429335	695.138167	915.330601	-87.866679	457.992310	1020.020406	-604.589700	672.900883	932.867437	-487.868697	-117.181526	1169.526255	-273.215169	17.638662	1179.142671	-427.836084	40.324388	1185.990944	-144.744775	66.242467	1124.930886	-390.736949	77.724150	1126.299363	-173.395099	-79.623483	1217.024447	-235.096011	-82.573204	1218.858240	-320.585697	-2.362579	1062.228911	-110.829252	-43.781268	1078.515789	-448.820454	98.812845	999.430804	-97.732760	182.789033	969.530943	-94.773966	238.233938	900.938731	-96.825557	202.732120	997.593788	-108.004267	343.330949	800.184789	-117.944861	252.441216	740.122956	-89.929663	205.813746	665.821608	-102.070337	131.241955	622.803388	-106.052085	228.607444	645.766495	-126.000659	41.137800	527.956762	-110.647151	71.521464	541.917918	-190.671372	-30.183266	555.026484	-157.427166	150.950451	319.681533	-157.892036	67.980611	379.835855	-91.721805	57.102495	968.367555	-472.925740	134.817789	931.496396	-472.416730	159.616847	957.461078	-460.981794	184.756500	856.134647	-472.522058	281.002581	748.368873	-443.005809	276.356029	733.419881	-336.023624	245.373861	624.619509	-464.815985	257.437755	538.530696	-453.575069	223.929247	456.574550	-452.281424	287.848911	537.445750	-429.855154	214.410227	330.592236	-442.165741	0.000000	0.000000	-0.000000	157.359590	285.656489	-396.873182	450.958430	297.447483	-406.331244	345.989175	257.782717	-467.703301	-220.199213	908.855989	-275.205502	-53.370638	78.981117	-474.743377	-53.408627	79.166886	-77.107061	
1753	8.7650	492.310965	1264.472148	-185.726363	486.822770	1258.065704	-431.391696	469.818826	1330.696167	-312.231004	414.085801	1180.335518	-308.624376	521.994193	1059.926955	0.742531	695.184209	915.385757	-87.686733	460.185759	1022.087542	-605.033724	673.415945	932.822143	-487.606947	-115.997782	1169.663569	-277.059457	20.119465	1178.408200	-429.578853	39.973576	1187.601862	-146.634578	68.386255	1124.401464	-392.149291	77.637463	1127.719952	-174.883212	-79.179807	1217.894413	-238.215116	-80.984116	1219.058040	-323.856205	-1.857038	1065.388025	-111.853397	-42.081463	1077.050016	-450.137815	99.762935	1003.864933	-97.511983	184.318538	975.474399	-94.765943	241.339808	908.343322	-95.848053	203.676903	1004.277080	-107.575330	348.072000	809.596604	-116.350232	257.027621	749.847051	-88.928144	211.239699	675.958121	-100.806307	135.537182	632.914518	-105.796102	233.860954	655.564252	-124.742611	45.392331	538.212446	-110.767502	74.046611	551.951049	-190.490753	-25.332086	565.562553	-157.049157	154.948851	329.758251	-157.957876	72.078148	389.976122	-91.862372	56.828709	964.564370	-473.618635	133.508401	925.439702	-472.118495	159.006177	950.741966	-460.714126	181.132133	848.615811	-471.466064	274.271824	738.441405	-441.158196	268.340319	723.589479	-334.789586	239.165721	614.295741	-463.976883	251.992580	528.368055	-452.277444	219.185940	445.954590	-450.624345	282.464982	527.995515	-428.945612	210.532647	320.947143	-441.690179	0.000000	0.000000	-0.000000	153.585685	275.994817	-396.466358	447.275591	287.027533	-406.035936	342.062546	247.874301	-467.395583	-220.105730	908.920807	-275.165242	-53.361903	79.008050	-474.728132	-53.371603	79.180184	-77.093169	
1754	8.7700	492.330138	1264.952067	-183.804921	488.792269	1258.458698	-429.511543	471.024824	1331.176097	-310.359079	414.878957	1180.962187	-307.205527	521.761208	1059.250789	1.043562	695.233298	915.502018	-87.496012	462.548359	1024.244832	-605.442046	673.933678	932.710725	-487.306751	-114.734584	1169.970345	-279.922937	22.952601	1177.824521	-431.681949	39.594137	1189.254276	-148.555321	70.475174	1123.535372	-393.299451	77.600886	1129.275100	-176.307658	-78.746999	1218.887831	-241.331078	-79.418348	1219.257224	-327.268353	-1.211489	1068.444761	-112.823920	-40.401758	1075.622398	-451.439470	100.634825	1008.499380	-97.230707	185.707618	981.957407	-94.203101	244.200423	915.935344	-94.780472	204.572038	1010.967512	-107.358281	352.778338	819.176104	-114.703508	261.445541	759.493662	-88.297404	215.673624	685.829719	-100.068659	139.926482	642.921307	-105.502469	237.536150	665.392262	-124.187252	49.788393	548.083907	-110.893514	78.178841	561.939744	-189.921931	-20.327506	575.254134	-156.893508	159.673505	339.912096	-158.000249	76.559390	400.000705	-91.999747	56.385962	960.809642	-473.968891	131.866790	919.473872	-471.851997	158.046906	944.068266	-460.552217	177.130391	841.254168	-470.508679	267.245514	728.741212	-439.433166	258.971168	714.591617	-332.958697	232.298468	604.039525	-462.977539	245.869702	518.413168	-451.142088	213.858979	435.582690	-449.185482	276.235802	518.438264	-427.609134	206.095621	311.707537	-441.300343	0.000000	0.000000	-0.000000	149.179260	266.970603	-395.993466	443.028310	276.858261	-405.858719	337.612016	238.298518	-467.088582	-220.018621	908.996425	-275.140395	-53.338146	79.058460	-474.737965	-53.372762	79.189397	-77.103566	
